<svg width="512" height="512" viewBox="0 0 512 512" xmlns="http://www.w3.org/2000/svg">
  <defs>
    <linearGradient id="bgGrad" x1="0%" y1="0%" x2="100%" y2="100%">
      <stop offset="0%" style="stop-color:#111827;stop-opacity:1" />
      <stop offset="30%" style="stop-color:#1f2937;stop-opacity:1" />
      <stop offset="70%" style="stop-color:#374151;stop-opacity:1" />
      <stop offset="100%" style="stop-color:#000000;stop-opacity:1" />
    </linearGradient>
    <linearGradient id="silverGrad" x1="0%" y1="0%" x2="100%" y2="100%">
      <stop offset="0%" style="stop-color:#f9fafb;stop-opacity:1" />
      <stop offset="50%" style="stop-color:#ffffff;stop-opacity:1" />
      <stop offset="100%" style="stop-color:#e5e7eb;stop-opacity:1" />
    </linearGradient>
    <linearGradient id="goldGrad" x1="0%" y1="0%" x2="100%" y2="100%">
      <stop offset="0%" style="stop-color:#fbbf24;stop-opacity:1" />
      <stop offset="50%" style="stop-color:#fcd34d;stop-opacity:1" />
      <stop offset="100%" style="stop-color:#f59e0b;stop-opacity:1" />
    </linearGradient>
    <radialGradient id="glowGrad" cx="50%" cy="50%" r="50%">
      <stop offset="0%" style="stop-color:#ffffff;stop-opacity:0.3" />
      <stop offset="100%" style="stop-color:#000000;stop-opacity:0" />
    </radialGradient>
    
    <!-- Shadow filter -->
    <filter id="shadow" x="-50%" y="-50%" width="200%" height="200%">
      <feGaussianBlur in="SourceAlpha" stdDeviation="4"/>
      <feOffset dx="0" dy="2" result="offsetblur"/>
      <feComponentTransfer>
        <feFuncA type="linear" slope="0.5"/>
      </feComponentTransfer>
      <feMerge>
        <feMergeNode/>
        <feMergeNode in="SourceGraphic"/>
      </feMerge>
    </filter>
  </defs>
  
  <!-- Main circular background with gradient -->
  <circle cx="256" cy="256" r="256" fill="url(#bgGrad)"/>
  
  <!-- Subtle glow effect -->
  <circle cx="256" cy="200" r="180" fill="url(#glowGrad)" opacity="0.4"/>
  
  <!-- Decorative rings -->
  <circle cx="256" cy="256" r="230" fill="none" stroke="#4b5563" stroke-width="2" opacity="0.4"/>
  <circle cx="256" cy="256" r="220" fill="none" stroke="#6b7280" stroke-width="1.5" opacity="0.3"/>
  
  <!-- Professional Lawyer/Vakil Icon -->
  <g transform="translate(156, 100)" filter="url(#shadow)">
    <!-- Head -->
    <circle cx="100" cy="50" r="35" fill="url(#silverGrad)"/>
    
    <!-- Professional Suit Body -->
    <path d="M100 90 L60 110 L60 280 L140 280 L140 110 L100 90 Z" fill="url(#silverGrad)" opacity="0.95"/>
    
    <!-- Coat lapels with detail -->
    <path d="M100 95 L70 120 L70 240 M100 95 L130 120 L130 240" 
          stroke="#1f2937" stroke-width="8" stroke-linecap="round" opacity="0.25"/>
    
    <!-- Inner coat lines -->
    <path d="M85 130 L85 250 M115 130 L115 250" 
          stroke="#374151" stroke-width="3" stroke-linecap="round" opacity="0.2"/>
    
    <!-- Professional Tie with gold accent -->
    <path d="M100 90 L100 240 L92 260 L100 280 L108 260 L100 240 Z" fill="url(#goldGrad)"/>
    
    <!-- Tie details -->
    <path d="M100 120 L95 140 L100 160 L105 140 Z M100 180 L95 200 L100 220" 
          stroke="#f59e0b" stroke-width="2" stroke-linecap="round" opacity="0.4"/>
    
    <!-- Arms -->
    <path d="M60 130 L40 180 L45 200 M140 130 L160 180 L155 200" 
          stroke="url(#silverGrad)" stroke-width="18" stroke-linecap="round"/>
    
    <!-- Professional Briefcase -->
    <rect x="45" y="310" width="110" height="80" rx="8" fill="url(#silverGrad)"/>
    
    <!-- Briefcase details -->
    <rect x="45" y="310" width="110" height="10" rx="8" fill="#1f2937" opacity="0.3"/>
    <rect x="45" y="380" width="110" height="10" rx="8" fill="#1f2937" opacity="0.2"/>
    
    <!-- Briefcase handle -->
    <path d="M75 310 L75 295 C75 285 80 280 100 280 C120 280 125 285 125 295 L125 310" 
          stroke="#e5e7eb" stroke-width="10" stroke-linecap="round" fill="none" opacity="0.8"/>
    
    <!-- Briefcase lock and hinges -->
    <rect x="95" y="340" width="10" height="25" rx="3" fill="url(#goldGrad)"/>
    <circle cx="100" cy="345" r="6" fill="#f59e0b"/>
    
    <!-- Side hinges -->
    <rect x="55" y="335" width="8" height="35" rx="2" fill="#9ca3af" opacity="0.5"/>
    <rect x="137" y="335" width="8" height="35" rx="2" fill="#9ca3af" opacity="0.5"/>
    
    <!-- Decorative legal books background -->
    <rect x="20" y="180" width="15" height="150" rx="3" fill="#4b5563" opacity="0.15"/>
    <rect x="165" y="180" width="15" height="150" rx="3" fill="#4b5563" opacity="0.15"/>
    
    <!-- Book page lines -->
    <path d="M22 200 L33 200 M22 220 L33 220 M22 240 L33 240 M167 200 L178 200 M167 220 L178 220 M167 240 L178 240" 
          stroke="#6b7280" stroke-width="1.5" opacity="0.2"/>
  </g>
  
  <!-- Professional Verified Badge -->
  <circle cx="400" cy="400" r="55" fill="url(#goldGrad)" filter="url(#shadow)"/>
  <circle cx="400" cy="400" r="48" fill="none" stroke="#111827" stroke-width="4"/>
  <circle cx="400" cy="400" r="42" fill="none" stroke="#fef3c7" stroke-width="2" opacity="0.6"/>
  
  <!-- Checkmark -->
  <path d="M375 400 L390 415 L425 380" 
        stroke="#ffffff" stroke-width="14" stroke-linecap="round" stroke-linejoin="round" fill="none"/>
  
  <!-- Bottom text curve (optional decorative element) -->
  <path d="M 100 450 Q 256 480 412 450" stroke="#4b5563" stroke-width="2" fill="none" opacity="0.3"/>
</svg>